<?xml version="1.0" encoding="UTF-8" standalone="no"?>
<svg xmlns="http://www.w3.org/2000/svg" xmlns:xlink="http://www.w3.org/1999/xlink" clip-rule="evenodd" stroke-miterlimit="10" viewBox="0 0 453.54 340.16" role="img" aria-labelledby="hockenheim-title hockenheim-desc">
    <!-- Accessibility metadata added 2026-08-16; visual geometry retained from the source SVG. -->
    <title id="hockenheim-title">Schemat układu toru Hockenheimring</title>
    <desc id="hockenheim-desc">Schemat współczesnego układu Hockenheimring w Badenii-Wirtembergii. Zaznaczono główną nitkę toru, krótsze warianty, kierunek jazdy, linię startu i mety oraz wybrane zakręty, między innymi Nordkurve, Parabolika, Spitzkehre, Sachs-Kurve i Südkurve.</desc>
    <defs/>
    <g>
        <path d="M 191.34 249.37 C 188.43 251.12 185.21 252.67 178.67 252.60 C 171.27 252.51 165.69 249.68 161.70 244.92 C 149.52 230.38 138.36 216.05 125.58 201.86 C 122.91 198.90 116.69 199.69 113.76 202.40 C 110.12 205.77 109.23 211.67 110.77 215.91 C 113.18 222.55 114.64 231.12 118.14 234.92 C 122.29 239.43 129.04 240.17 134.08 243.67 C 140.02 247.80 144.42 254.58 147.89 261.32 C 151.25 267.85 145.93 278.75 141.22 281.86 C 136.44 285.02 137.71 284.56 132.73 287.39 C 128.06 290.03 122.92 290.30 119.42 289.32 C 113.96 287.79 111.66 284.21 108.11 276.74 C 90.99 240.81 74.85 210.46 57.61 174.38 C 53.16 165.06 68.04 138.87 71.54 135.02 C 98.61 105.30 88.83 115.80 89.97 114.57 C 96.30 107.80 104.14 98.03 112.94 110.98 C 124.28 127.68 114.10 135.11 123.55 149.30 C 129.02 157.51 158.55 198.90 161.80 201.88 C 168.52 208.03 178.49 211.85 183.68 211.84 C 191.10 211.83 213.00 215.05 197.77 227.50 C 193.26 231.18 200.00 243.73 194.09 247.60 Z M 364.60 133.44 " stroke="#B3B3B3" stroke-width="4.00" fill="none"/>
        <ellipse cx="127.16" cy="255.29" rx="8.75" ry="8.75" fill="#FFFFFF" stroke="#000000" stroke-width="0.51"/>
        <path d="M 141.15 281.06 C 135.45 283.72 132.56 285.10 127.74 283.70 C 123.82 282.56 121.22 280.01 119.76 276.81 C 115.04 266.47 112.44 259.44 110.39 255.09 C 108.89 251.93 112.28 248.70 109.46 246.63 C 106.59 244.52 100.48 238.22 97.52 232.71 C 87.48 213.99 77.90 192.93 68.23 173.04 C 68.23 173.04 66.83 170.40 66.43 168.31 C 66.19 167.05 64.07 159.42 63.86 154.07 C 63.74 151.02 69.55 136.67 92.81 113.76 " stroke="#000000" stroke-width="4.00" fill="none"/>
        <path d="M 92.16 272.53 L 82.54 276.78 L 79.49 257.18 Z M 92.16 272.53 " fill-rule="non-zero" fill="#FF0000"/>
        <ellipse cx="36.91" cy="160.39" rx="8.75" ry="8.75" fill="#FFFFFF" stroke="#000000" stroke-width="0.51"/>
        <text xml:space="preserve" font-family="Liberation Sans" font-size="10.00" transform="matrix(0.818095, 0, 0, 0.818095, 0, 0)">
            <tspan x="42.12" y="199.77">1</tspan>
        </text>
        <text xml:space="preserve" font-family="Liberation Sans" font-size="7.00" transform="matrix(1.8681, 0, 0, 1.8681, 0, 0)" opacity="0.49">
            <tspan x="6.10" y="71.55">Nord-</tspan>
            <tspan x="6.10" y="78.55">kurve</tspan>
        </text>
        <text xml:space="preserve" font-family="Liberation Sans" font-size="7.00" transform="matrix(1.8681, 0, 0, 1.8681, 0, 0)" opacity="0.49">
            <tspan x="60.08" y="173.51">Südkurve</tspan>
        </text>
        <text xml:space="preserve" font-family="Liberation Sans" font-size="7.00" transform="matrix(1.8681, 0, 0, 1.8681, 0, 0)" opacity="0.49">
            <tspan x="206.39" y="40.11">Spitzkehre</tspan>
        </text>
        <ellipse cx="158.92" cy="52.86" rx="8.75" ry="8.75" fill="#FFFFFF" stroke="#000000" stroke-width="0.51"/>
        <text xml:space="preserve" font-family="Liberation Sans" font-size="10.00" transform="matrix(0.818095, 0, 0, 0.818095, 0, 0)">
            <tspan x="191.26" y="68.33">2</tspan>
        </text>
        <ellipse cx="138.50" cy="98.27" rx="8.75" ry="8.75" fill="#FFFFFF" stroke="#000000" stroke-width="0.51"/>
        <text xml:space="preserve" font-family="Liberation Sans" font-size="10.00" transform="matrix(0.818095, 0, 0, 0.818095, 0, 0)">
            <tspan x="166.29" y="123.84">3</tspan>
        </text>
        <ellipse cx="265.40" cy="119.76" rx="8.75" ry="8.75" fill="#FFFFFF" stroke="#000000" stroke-width="0.51"/>
        <text xml:space="preserve" font-family="Liberation Sans" font-size="10.00" transform="matrix(0.818095, 0, 0, 0.818095, 0, 0)">
            <tspan x="321.41" y="150.11">4</tspan>
        </text>
        <ellipse cx="240.06" cy="156.12" rx="8.75" ry="8.75" fill="#FFFFFF" stroke="#000000" stroke-width="0.51"/>
        <text xml:space="preserve" font-family="Liberation Sans" font-size="10.00" transform="matrix(0.818095, 0, 0, 0.818095, 0, 0)">
            <tspan x="290.43" y="194.54">7</tspan>
        </text>
        <ellipse cx="277.94" cy="203.73" rx="8.75" ry="8.75" fill="#FFFFFF" stroke="#000000" stroke-width="0.51"/>
        <text xml:space="preserve" font-family="Liberation Sans" font-size="10.00" transform="matrix(0.818095, 0, 0, 0.818095, 0, 0)">
            <tspan x="336.74" y="252.74">8</tspan>
        </text>
        <ellipse cx="187.03" cy="267.45" rx="8.75" ry="8.75" fill="#FFFFFF" stroke="#000000" stroke-width="0.51"/>
        <text xml:space="preserve" font-family="Liberation Sans" font-size="10.00" transform="matrix(0.818095, 0, 0, 0.818095, 0, 0)">
            <tspan x="225.62" y="330.64">9</tspan>
        </text>
        <ellipse cx="107.93" cy="187.47" rx="8.75" ry="8.75" fill="#FFFFFF" stroke="#000000" stroke-width="0.51"/>
        <text xml:space="preserve" font-family="Liberation Sans" font-size="10.00" transform="matrix(0.818095, 0, 0, 0.818095, 0, 0)">
            <tspan x="125.92" y="232.87">10</tspan>
        </text>
        <ellipse cx="139.28" cy="300.81" rx="8.75" ry="8.75" fill="#FFFFFF" stroke="#000000" stroke-width="0.51"/>
        <text xml:space="preserve" font-family="Liberation Sans" font-size="10.00" transform="matrix(0.818095, 0, 0, 0.818095, 0, 0)">
            <tspan x="164.25" y="371.41">13</tspan>
        </text>
        <text xml:space="preserve" font-family="Liberation Sans" font-size="10.00" transform="matrix(0.818095, 0, 0, 0.818095, 0, 0)">
            <tspan x="149.39" y="315.29">12</tspan>
        </text>
        <text xml:space="preserve" font-family="Liberation Sans" font-size="7.00" transform="matrix(1.8681, 0, 0, 1.8681, 0, 0)" opacity="0.49">
            <tspan x="115.82" y="56.73">Parabolika-Kurve</tspan>
        </text>
        <ellipse cx="428.84" cy="93.00" rx="8.75" ry="8.75" fill="#FFFFFF" stroke="#000000" stroke-width="0.51"/>
        <text xml:space="preserve" font-family="Liberation Sans" font-size="10.00" transform="matrix(0.818095, 0, 0, 0.818095, 0, 0)">
            <tspan x="521.20" y="117.40">5</tspan>
        </text>
        <ellipse cx="335.01" cy="170.73" rx="8.75" ry="8.75" fill="#FFFFFF" stroke="#000000" stroke-width="0.51"/>
        <text xml:space="preserve" font-family="Liberation Sans" font-size="10.00" transform="matrix(0.818095, 0, 0, 0.818095, 0, 0)">
            <tspan x="406.50" y="212.40">6</tspan>
        </text>
        <text xml:space="preserve" font-family="Liberation Sans" font-size="7.00" transform="matrix(1.8681, 0, 0, 1.8681, 0, 0)" opacity="0.49">
            <tspan x="106.22" y="146.28">Mobile 1 Kurve</tspan>
        </text>
        <path d="M 330.78 155.56 C 329.12 156.71 325.99 157.88 322.86 158.18 C 316.84 158.74 264.70 150.85 260.78 150.40 C 259.31 150.23 257.25 150.58 256.60 151.91 C 250.82 163.87 258.04 176.24 261.45 180.70 C 268.99 190.56 261.26 201.67 257.11 204.47 C 243.40 213.71 201.01 242.27 196.09 245.60 C 190.67 249.27 185.01 252.38 178.46 252.31 C 171.06 252.23 165.48 249.39 161.49 244.63 C 149.31 230.09 138.15 215.76 125.37 201.56 C 122.70 198.59 116.47 199.39 113.54 202.10 C 109.90 205.47 109.01 211.37 110.54 215.61 C 112.95 222.25 114.41 230.83 117.92 234.63 C 122.07 239.14 128.82 239.88 133.86 243.38 C 139.80 247.51 144.20 254.29 147.68 261.03 C 151.04 267.56 151.69 273.26 141.00 281.58 C 136.48 285.10 137.49 284.28 132.51 287.11 C 127.85 289.76 122.70 290.02 119.20 289.04 C 113.74 287.51 111.44 283.93 107.88 276.46 C 90.76 240.52 75.66 209.51 57.61 173.81 C 53.66 165.99 65.32 141.41 75.45 130.37 C 126.52 74.77 138.20 64.48 141.73 63.01 C 147.38 60.65 151.77 72.62 151.98 77.25 C 152.41 87.07 151.24 92.47 161.19 98.18 C 265.68 158.14 310.29 135.68 400.95 98.21 C 408.06 95.27 409.84 94.87 412.01 97.72 C 414.11 100.48 409.69 103.47 406.84 105.16 Z M 364.45 133.12 " stroke="#000000" stroke-width="7.00" fill="none"/>
        <g>
            <path d="M 104.97 239.15 L 98.81 242.13 L 95.84 235.98 L 101.99 233.00 Z M 104.97 239.15 " fill-rule="non-zero" fill="#000000"/>
            <path d="M 101.99 233.00 L 95.84 235.98 L 92.86 229.82 L 99.02 226.84 Z M 101.99 233.00 " fill-rule="non-zero" fill="#FFFFFF"/>
            <path d="M 99.02 226.84 L 92.86 229.82 L 89.88 223.67 L 96.04 220.69 Z M 99.02 226.84 " fill-rule="non-zero" fill="#000000"/>
            <path d="M 98.87 242.10 L 92.71 245.08 L 89.74 238.93 L 95.89 235.95 Z M 98.87 242.10 " fill-rule="non-zero" fill="#FFFFFF"/>
            <path d="M 92.92 229.79 L 86.76 232.77 L 83.78 226.62 L 89.94 223.64 Z M 92.92 229.79 " fill-rule="non-zero" fill="#FFFFFF"/>
            <path d="M 95.95 235.92 L 89.79 238.90 L 86.81 232.74 L 92.97 229.77 Z M 95.95 235.92 " fill-rule="non-zero" fill="#000000"/>
            <path d="M 92.77 245.05 L 86.61 248.03 L 83.64 241.88 L 89.79 238.90 Z M 92.77 245.05 " fill-rule="non-zero" fill="#000000"/>
            <path d="M 89.79 238.90 L 83.64 241.88 L 80.66 235.72 L 86.81 232.74 Z M 89.79 238.90 " fill-rule="non-zero" fill="#FFFFFF"/>
            <path d="M 86.81 232.74 L 80.66 235.72 L 77.68 229.57 L 83.84 226.59 Z M 86.81 232.74 " fill-rule="non-zero" fill="#000000"/>
            <path d="M 86.67 248.01 L 80.51 250.98 L 77.53 244.83 L 83.69 241.85 Z M 86.67 248.01 " fill-rule="non-zero" fill="#FFFFFF"/>
            <path d="M 80.71 235.70 L 74.56 238.67 L 71.58 232.52 L 77.74 229.54 Z M 80.71 235.70 " fill-rule="non-zero" fill="#FFFFFF"/>
            <path d="M 83.74 241.82 L 77.59 244.80 L 74.61 238.65 L 80.77 235.67 Z M 83.74 241.82 " fill-rule="non-zero" fill="#000000"/>
            <path d="M 80.78 251.12 L 74.62 254.10 L 71.65 247.94 L 77.80 244.96 Z M 80.78 251.12 " fill-rule="non-zero" fill="#000000"/>
            <path d="M 77.80 244.96 L 71.65 247.94 L 68.67 241.79 L 74.82 238.81 Z M 77.80 244.96 " fill-rule="non-zero" fill="#FFFFFF"/>
            <path d="M 74.82 238.81 L 68.67 241.79 L 65.69 235.63 L 71.85 232.65 Z M 74.82 238.81 " fill-rule="non-zero" fill="#000000"/>
        </g>
        <text xml:space="preserve" font-family="Liberation Sans" font-size="7.00" transform="matrix(1.8681, 0, 0, 1.8681, 0, 0)" opacity="0.49">
            <tspan x="69.21" y="14.59">Einfahrt</tspan>
            <tspan x="69.21" y="21.59">Parabolika</tspan>
        </text>
        <text xml:space="preserve" font-family="Liberation Sans" font-size="7.00" transform="matrix(1.8681, 0, 0, 1.8681, 0, 0)" opacity="0.49">
            <tspan x="43.06" y="87.83">Sachs-</tspan>
            <tspan x="43.06" y="94.83">kurve</tspan>
        </text>
        <ellipse cx="129.27" cy="225.63" rx="8.75" ry="8.75" fill="#FFFFFF" stroke="#000000" stroke-width="0.51"/>
        <text xml:space="preserve" font-family="Liberation Sans" font-size="10.00" transform="matrix(0.818095, 0, 0, 0.818095, 0, 0)">
            <tspan x="152.01" y="279.52">11</tspan>
        </text>
    </g>
</svg>